<svg xmlns="http://www.w3.org/2000/svg" width="1200" height="630" viewBox="0 0 1200 630"><rect width="1200" height="630" fill="#071A33"/><line x1="0" y1="0" x2="0" y2="630" stroke="#16355F" stroke-width="1" opacity="0.9"/><line x1="12" y1="0" x2="12" y2="630" stroke="#16355F" stroke-width="0.5" opacity="0.45"/><line x1="24" y1="0" x2="24" y2="630" stroke="#16355F" stroke-width="0.5" opacity="0.45"/><line x1="36" y1="0" x2="36" y2="630" stroke="#16355F" stroke-width="0.5" opacity="0.45"/><line x1="48" y1="0" x2="48" y2="630" stroke="#16355F" stroke-width="1" opacity="0.9"/><line x1="60" y1="0" x2="60" y2="630" stroke="#16355F" stroke-width="0.5" opacity="0.45"/><line x1="72" y1="0" x2="72" y2="630" stroke="#16355F" stroke-width="0.5" opacity="0.45"/><line x1="84" y1="0" x2="84" y2="630" stroke="#16355F" stroke-width="0.5" opacity="0.45"/><line x1="96" y1="0" x2="96" y2="630" stroke="#16355F" stroke-width="1" opacity="0.9"/><line x1="108" y1="0" x2="108" y2="630" stroke="#16355F" stroke-width="0.5" opacity="0.45"/><line x1="120" y1="0" x2="120" y2="630" stroke="#16355F" stroke-width="0.5" opacity="0.45"/><line x1="132" y1="0" x2="132" y2="630" stroke="#16355F" stroke-width="0.5" opacity="0.45"/><line x1="144" y1="0" x2="144" y2="630" stroke="#16355F" stroke-width="1" opacity="0.9"/><line x1="156" y1="0" x2="156" y2="630" stroke="#16355F" stroke-width="0.5" opacity="0.45"/><line x1="168" y1="0" x2="168" y2="630" stroke="#16355F" stroke-width="0.5" opacity="0.45"/><line x1="180" y1="0" x2="180" y2="630" stroke="#16355F" stroke-width="0.5" opacity="0.45"/><line x1="192" y1="0" x2="192" y2="630" stroke="#16355F" stroke-width="1" opacity="0.9"/><line x1="204" y1="0" x2="204" y2="630" stroke="#16355F" stroke-width="0.5" opacity="0.45"/><line x1="216" y1="0" x2="216" y2="630" stroke="#16355F" stroke-width="0.5" opacity="0.45"/><line x1="228" y1="0" x2="228" y2="630" stroke="#16355F" stroke-width="0.5" opacity="0.45"/><line x1="240" y1="0" x2="240" y2="630" stroke="#16355F" stroke-width="1" opacity="0.9"/><line x1="252" y1="0" x2="252" y2="630" stroke="#16355F" stroke-width="0.5" opacity="0.45"/><line x1="264" y1="0" x2="264" y2="630" stroke="#16355F" stroke-width="0.5" opacity="0.45"/><line x1="276" y1="0" x2="276" y2="630" stroke="#16355F" stroke-width="0.5" opacity="0.45"/><line x1="288" y1="0" x2="288" y2="630" stroke="#16355F" stroke-width="1" opacity="0.9"/><line x1="300" y1="0" x2="300" y2="630" stroke="#16355F" stroke-width="0.5" opacity="0.45"/><line x1="312" y1="0" x2="312" y2="630" stroke="#16355F" stroke-width="0.5" opacity="0.45"/><line x1="324" y1="0" x2="324" y2="630" stroke="#16355F" stroke-width="0.5" opacity="0.45"/><line x1="336" y1="0" x2="336" y2="630" stroke="#16355F" stroke-width="1" opacity="0.9"/><line x1="348" y1="0" x2="348" y2="630" stroke="#16355F" stroke-width="0.5" opacity="0.45"/><line x1="360" y1="0" x2="360" y2="630" stroke="#16355F" stroke-width="0.5" opacity="0.45"/><line x1="372" y1="0" x2="372" y2="630" stroke="#16355F" stroke-width="0.5" opacity="0.45"/><line x1="384" y1="0" x2="384" y2="630" stroke="#16355F" stroke-width="1" opacity="0.9"/><line x1="396" y1="0" x2="396" y2="630" stroke="#16355F" stroke-width="0.5" opacity="0.45"/><line x1="408" y1="0" x2="408" y2="630" stroke="#16355F" stroke-width="0.5" opacity="0.45"/><line x1="420" y1="0" x2="420" y2="630" stroke="#16355F" stroke-width="0.5" opacity="0.45"/><line x1="432" y1="0" x2="432" y2="630" stroke="#16355F" stroke-width="1" opacity="0.9"/><line x1="444" y1="0" x2="444" y2="630" stroke="#16355F" stroke-width="0.5" opacity="0.45"/><line x1="456" y1="0" x2="456" y2="630" stroke="#16355F" stroke-width="0.5" opacity="0.45"/><line x1="468" y1="0" x2="468" y2="630" stroke="#16355F" stroke-width="0.5" opacity="0.45"/><line x1="480" y1="0" x2="480" y2="630" stroke="#16355F" stroke-width="1" opacity="0.9"/><line x1="492" y1="0" x2="492" y2="630" stroke="#16355F" stroke-width="0.5" opacity="0.45"/><line x1="504" y1="0" x2="504" y2="630" stroke="#16355F" stroke-width="0.5" opacity="0.45"/><line x1="516" y1="0" x2="516" y2="630" stroke="#16355F" stroke-width="0.5" opacity="0.45"/><line x1="528" y1="0" x2="528" y2="630" stroke="#16355F" stroke-width="1" opacity="0.9"/><line x1="540" y1="0" x2="540" y2="630" stroke="#16355F" stroke-width="0.5" opacity="0.45"/><line x1="552" y1="0" x2="552" y2="630" stroke="#16355F" stroke-width="0.5" opacity="0.45"/><line x1="564" y1="0" x2="564" y2="630" stroke="#16355F" stroke-width="0.5" opacity="0.45"/><line x1="576" y1="0" x2="576" y2="630" stroke="#16355F" stroke-width="1" opacity="0.9"/><line x1="588" y1="0" x2="588" y2="630" stroke="#16355F" stroke-width="0.5" opacity="0.45"/><line x1="600" y1="0" x2="600" y2="630" stroke="#16355F" stroke-width="0.5" opacity="0.45"/><line x1="612" y1="0" x2="612" y2="630" stroke="#16355F" stroke-width="0.5" opacity="0.45"/><line x1="624" y1="0" x2="624" y2="630" stroke="#16355F" stroke-width="1" opacity="0.9"/><line x1="636" y1="0" x2="636" y2="630" stroke="#16355F" stroke-width="0.5" opacity="0.45"/><line x1="648" y1="0" x2="648" y2="630" stroke="#16355F" stroke-width="0.5" opacity="0.45"/><line x1="660" y1="0" x2="660" y2="630" stroke="#16355F" stroke-width="0.5" opacity="0.45"/><line x1="672" y1="0" x2="672" y2="630" stroke="#16355F" stroke-width="1" opacity="0.9"/><line x1="684" y1="0" x2="684" y2="630" stroke="#16355F" stroke-width="0.5" opacity="0.45"/><line x1="696" y1="0" x2="696" y2="630" stroke="#16355F" stroke-width="0.5" opacity="0.45"/><line x1="708" y1="0" x2="708" y2="630" stroke="#16355F" stroke-width="0.5" opacity="0.45"/><line x1="720" y1="0" x2="720" y2="630" stroke="#16355F" stroke-width="1" opacity="0.9"/><line x1="732" y1="0" x2="732" y2="630" stroke="#16355F" stroke-width="0.5" opacity="0.45"/><line x1="744" y1="0" x2="744" y2="630" stroke="#16355F" stroke-width="0.5" opacity="0.45"/><line x1="756" y1="0" x2="756" y2="630" stroke="#16355F" stroke-width="0.5" opacity="0.45"/><line x1="768" y1="0" x2="768" y2="630" stroke="#16355F" stroke-width="1" opacity="0.9"/><line x1="780" y1="0" x2="780" y2="630" stroke="#16355F" stroke-width="0.5" opacity="0.45"/><line x1="792" y1="0" x2="792" y2="630" stroke="#16355F" stroke-width="0.5" opacity="0.45"/><line x1="804" y1="0" x2="804" y2="630" stroke="#16355F" stroke-width="0.5" opacity="0.45"/><line x1="816" y1="0" x2="816" y2="630" stroke="#16355F" stroke-width="1" opacity="0.9"/><line x1="828" y1="0" x2="828" y2="630" stroke="#16355F" stroke-width="0.5" opacity="0.45"/><line x1="840" y1="0" x2="840" y2="630" stroke="#16355F" stroke-width="0.5" opacity="0.45"/><line x1="852" y1="0" x2="852" y2="630" stroke="#16355F" stroke-width="0.5" opacity="0.45"/><line x1="864" y1="0" x2="864" y2="630" stroke="#16355F" stroke-width="1" opacity="0.9"/><line x1="876" y1="0" x2="876" y2="630" stroke="#16355F" stroke-width="0.5" opacity="0.45"/><line x1="888" y1="0" x2="888" y2="630" stroke="#16355F" stroke-width="0.5" opacity="0.45"/><line x1="900" y1="0" x2="900" y2="630" stroke="#16355F" stroke-width="0.5" opacity="0.45"/><line x1="912" y1="0" x2="912" y2="630" stroke="#16355F" stroke-width="1" opacity="0.9"/><line x1="924" y1="0" x2="924" y2="630" stroke="#16355F" stroke-width="0.5" opacity="0.45"/><line x1="936" y1="0" x2="936" y2="630" stroke="#16355F" stroke-width="0.5" opacity="0.45"/><line x1="948" y1="0" x2="948" y2="630" stroke="#16355F" stroke-width="0.5" opacity="0.45"/><line x1="960" y1="0" x2="960" y2="630" stroke="#16355F" stroke-width="1" opacity="0.9"/><line x1="972" y1="0" x2="972" y2="630" stroke="#16355F" stroke-width="0.5" opacity="0.45"/><line x1="984" y1="0" x2="984" y2="630" stroke="#16355F" stroke-width="0.5" opacity="0.45"/><line x1="996" y1="0" x2="996" y2="630" stroke="#16355F" stroke-width="0.5" opacity="0.45"/><line x1="1008" y1="0" x2="1008" y2="630" stroke="#16355F" stroke-width="1" opacity="0.9"/><line x1="1020" y1="0" x2="1020" y2="630" stroke="#16355F" stroke-width="0.5" opacity="0.45"/><line x1="1032" y1="0" x2="1032" y2="630" stroke="#16355F" stroke-width="0.5" opacity="0.45"/><line x1="1044" y1="0" x2="1044" y2="630" stroke="#16355F" stroke-width="0.5" opacity="0.45"/><line x1="1056" y1="0" x2="1056" y2="630" stroke="#16355F" stroke-width="1" opacity="0.9"/><line x1="1068" y1="0" x2="1068" y2="630" stroke="#16355F" stroke-width="0.5" opacity="0.45"/><line x1="1080" y1="0" x2="1080" y2="630" stroke="#16355F" stroke-width="0.5" opacity="0.45"/><line x1="1092" y1="0" x2="1092" y2="630" stroke="#16355F" stroke-width="0.5" opacity="0.45"/><line x1="1104" y1="0" x2="1104" y2="630" stroke="#16355F" stroke-width="1" opacity="0.9"/><line x1="1116" y1="0" x2="1116" y2="630" stroke="#16355F" stroke-width="0.5" opacity="0.45"/><line x1="1128" y1="0" x2="1128" y2="630" stroke="#16355F" stroke-width="0.5" opacity="0.45"/><line x1="1140" y1="0" x2="1140" y2="630" stroke="#16355F" stroke-width="0.5" opacity="0.45"/><line x1="1152" y1="0" x2="1152" y2="630" stroke="#16355F" stroke-width="1" opacity="0.9"/><line x1="1164" y1="0" x2="1164" y2="630" stroke="#16355F" stroke-width="0.5" opacity="0.45"/><line x1="1176" y1="0" x2="1176" y2="630" stroke="#16355F" stroke-width="0.5" opacity="0.45"/><line x1="1188" y1="0" x2="1188" y2="630" stroke="#16355F" stroke-width="0.5" opacity="0.45"/><line x1="1200" y1="0" x2="1200" y2="630" stroke="#16355F" stroke-width="1" opacity="0.9"/><line x1="0" y1="0" x2="1200" y2="0" stroke="#16355F" stroke-width="1" opacity="0.9"/><line x1="0" y1="12" x2="1200" y2="12" stroke="#16355F" stroke-width="0.5" opacity="0.45"/><line x1="0" y1="24" x2="1200" y2="24" stroke="#16355F" stroke-width="0.5" opacity="0.45"/><line x1="0" y1="36" x2="1200" y2="36" stroke="#16355F" stroke-width="0.5" opacity="0.45"/><line x1="0" y1="48" x2="1200" y2="48" stroke="#16355F" stroke-width="1" opacity="0.9"/><line x1="0" y1="60" x2="1200" y2="60" stroke="#16355F" stroke-width="0.5" opacity="0.45"/><line x1="0" y1="72" x2="1200" y2="72" stroke="#16355F" stroke-width="0.5" opacity="0.45"/><line x1="0" y1="84" x2="1200" y2="84" stroke="#16355F" stroke-width="0.5" opacity="0.45"/><line x1="0" y1="96" x2="1200" y2="96" stroke="#16355F" stroke-width="1" opacity="0.9"/><line x1="0" y1="108" x2="1200" y2="108" stroke="#16355F" stroke-width="0.5" opacity="0.45"/><line x1="0" y1="120" x2="1200" y2="120" stroke="#16355F" stroke-width="0.5" opacity="0.45"/><line x1="0" y1="132" x2="1200" y2="132" stroke="#16355F" stroke-width="0.5" opacity="0.45"/><line x1="0" y1="144" x2="1200" y2="144" stroke="#16355F" stroke-width="1" opacity="0.9"/><line x1="0" y1="156" x2="1200" y2="156" stroke="#16355F" stroke-width="0.5" opacity="0.45"/><line x1="0" y1="168" x2="1200" y2="168" stroke="#16355F" stroke-width="0.5" opacity="0.45"/><line x1="0" y1="180" x2="1200" y2="180" stroke="#16355F" stroke-width="0.5" opacity="0.45"/><line x1="0" y1="192" x2="1200" y2="192" stroke="#16355F" stroke-width="1" opacity="0.9"/><line x1="0" y1="204" x2="1200" y2="204" stroke="#16355F" stroke-width="0.5" opacity="0.45"/><line x1="0" y1="216" x2="1200" y2="216" stroke="#16355F" stroke-width="0.5" opacity="0.45"/><line x1="0" y1="228" x2="1200" y2="228" stroke="#16355F" stroke-width="0.5" opacity="0.45"/><line x1="0" y1="240" x2="1200" y2="240" stroke="#16355F" stroke-width="1" opacity="0.9"/><line x1="0" y1="252" x2="1200" y2="252" stroke="#16355F" stroke-width="0.5" opacity="0.45"/><line x1="0" y1="264" x2="1200" y2="264" stroke="#16355F" stroke-width="0.5" opacity="0.45"/><line x1="0" y1="276" x2="1200" y2="276" stroke="#16355F" stroke-width="0.5" opacity="0.45"/><line x1="0" y1="288" x2="1200" y2="288" stroke="#16355F" stroke-width="1" opacity="0.9"/><line x1="0" y1="300" x2="1200" y2="300" stroke="#16355F" stroke-width="0.5" opacity="0.45"/><line x1="0" y1="312" x2="1200" y2="312" stroke="#16355F" stroke-width="0.5" opacity="0.45"/><line x1="0" y1="324" x2="1200" y2="324" stroke="#16355F" stroke-width="0.5" opacity="0.45"/><line x1="0" y1="336" x2="1200" y2="336" stroke="#16355F" stroke-width="1" opacity="0.9"/><line x1="0" y1="348" x2="1200" y2="348" stroke="#16355F" stroke-width="0.5" opacity="0.45"/><line x1="0" y1="360" x2="1200" y2="360" stroke="#16355F" stroke-width="0.5" opacity="0.45"/><line x1="0" y1="372" x2="1200" y2="372" stroke="#16355F" stroke-width="0.5" opacity="0.45"/><line x1="0" y1="384" x2="1200" y2="384" stroke="#16355F" stroke-width="1" opacity="0.9"/><line x1="0" y1="396" x2="1200" y2="396" stroke="#16355F" stroke-width="0.5" opacity="0.45"/><line x1="0" y1="408" x2="1200" y2="408" stroke="#16355F" stroke-width="0.5" opacity="0.45"/><line x1="0" y1="420" x2="1200" y2="420" stroke="#16355F" stroke-width="0.5" opacity="0.45"/><line x1="0" y1="432" x2="1200" y2="432" stroke="#16355F" stroke-width="1" opacity="0.9"/><line x1="0" y1="444" x2="1200" y2="444" stroke="#16355F" stroke-width="0.5" opacity="0.45"/><line x1="0" y1="456" x2="1200" y2="456" stroke="#16355F" stroke-width="0.5" opacity="0.45"/><line x1="0" y1="468" x2="1200" y2="468" stroke="#16355F" stroke-width="0.5" opacity="0.45"/><line x1="0" y1="480" x2="1200" y2="480" stroke="#16355F" stroke-width="1" opacity="0.9"/><line x1="0" y1="492" x2="1200" y2="492" stroke="#16355F" stroke-width="0.5" opacity="0.45"/><line x1="0" y1="504" x2="1200" y2="504" stroke="#16355F" stroke-width="0.5" opacity="0.45"/><line x1="0" y1="516" x2="1200" y2="516" stroke="#16355F" stroke-width="0.5" opacity="0.45"/><line x1="0" y1="528" x2="1200" y2="528" stroke="#16355F" stroke-width="1" opacity="0.9"/><line x1="0" y1="540" x2="1200" y2="540" stroke="#16355F" stroke-width="0.5" opacity="0.45"/><line x1="0" y1="552" x2="1200" y2="552" stroke="#16355F" stroke-width="0.5" opacity="0.45"/><line x1="0" y1="564" x2="1200" y2="564" stroke="#16355F" stroke-width="0.5" opacity="0.45"/><line x1="0" y1="576" x2="1200" y2="576" stroke="#16355F" stroke-width="1" opacity="0.9"/><line x1="0" y1="588" x2="1200" y2="588" stroke="#16355F" stroke-width="0.5" opacity="0.45"/><line x1="0" y1="600" x2="1200" y2="600" stroke="#16355F" stroke-width="0.5" opacity="0.45"/><line x1="0" y1="612" x2="1200" y2="612" stroke="#16355F" stroke-width="0.5" opacity="0.45"/><line x1="0" y1="624" x2="1200" y2="624" stroke="#16355F" stroke-width="1" opacity="0.9"/><g transform="translate(80 92) scale(1.25)" stroke-linecap="round" stroke-linejoin="round"><path d="M30 50 V27 M30 27 L14 12 M30 27 L54 9" fill="none" stroke="#F4F8FC" stroke-width="7"/><path d="M47 13 V24" fill="none" stroke="#F4F8FC" stroke-width="2.5"/><rect x="41" y="24" width="12" height="10" rx="1.5" fill="#3FD0FF"/><rect x="6" y="50" width="52" height="8" rx="4" fill="#FFB000"/></g><path d="M180.836 150.0V135.96V135.888L170.756 92.4H180.26L183.284 106.944L184.57999999999998 123.756H186.416L187.676 106.944L190.7 92.4H200.204L190.124 135.924V135.996V150.0ZM203.336 150.0 210.86 92.4H225.836L233.36 150.0H223.82L222.524 136.788H214.172L212.876 150.0ZM215.036 128.58H221.66L220.4 115.908L219.356 100.608H217.34L216.296 115.908ZM238.832 150.0V92.4H251.468Q258.74 92.4 261.962 95.388Q265.18399999999997 98.376 265.436 105.25200000000001Q265.508 107.55600000000001 265.544 109.41000000000001Q265.58 111.26400000000001 265.544 113.08200000000001Q265.508 114.9 265.436 117.06Q265.292 121.452 263.96 124.206Q262.628 126.96000000000001 259.784 128.364L266.3 150.0H256.436L251.036 129.912H248.15599999999998V150.0ZM248.15599999999998 121.70400000000001H251.432Q253.772 121.70400000000001 254.90599999999998 120.642Q256.03999999999996 119.58 256.14799999999997 117.528Q256.256 115.512 256.292 113.334Q256.328 111.156 256.292 108.97800000000001Q256.256 106.80000000000001 256.14799999999997 104.784Q256.03999999999996 102.732 254.90599999999998 101.67Q253.772 100.608 251.468 100.608H248.15599999999998ZM272.27599999999995 150.0V92.4H285.55999999999995Q292.86799999999994 92.4 296.14399999999995 95.53200000000001Q299.41999999999996 98.664 299.52799999999996 105.864Q299.63599999999997 111.33600000000001 299.67199999999997 116.25Q299.70799999999997 121.164 299.67199999999997 126.078Q299.63599999999997 130.992 299.52799999999996 136.464Q299.41999999999996 143.7 296.14399999999995 146.85Q292.86799999999994 150.0 285.52399999999994 150.0ZM281.59999999999997 141.792H285.52399999999994Q287.8639999999999 141.792 289.03399999999993 140.712Q290.20399999999995 139.632 290.23999999999995 137.58Q290.34799999999996 133.44 290.40199999999993 129.35399999999998Q290.45599999999996 125.268 290.45599999999996 121.164Q290.45599999999996 117.06 290.40199999999993 112.956Q290.34799999999996 108.852 290.23999999999995 104.784Q290.20399999999995 102.732 289.03399999999993 101.67Q287.8639999999999 100.608 285.55999999999995 100.608H281.59999999999997Z" fill="#F4F8FC"/><path d="M83.096 330.0V272.4H96.38Q103.688 272.4 106.964 275.532Q110.24 278.664 110.348 285.86400000000003Q110.45599999999999 291.336 110.49199999999999 296.25Q110.52799999999999 301.164 110.49199999999999 306.078Q110.45599999999999 310.992 110.348 316.464Q110.24 323.7 106.964 326.85Q103.688 330.0 96.344 330.0ZM92.42 321.792H96.344Q98.684 321.792 99.854 320.712Q101.024 319.632 101.06 317.58Q101.168 313.44 101.22200000000001 309.35400000000004Q101.276 305.26800000000003 101.276 301.164Q101.276 297.06 101.22200000000001 292.956Q101.168 288.852 101.06 284.784Q101.024 282.732 99.854 281.67Q98.684 280.608 96.38 280.608H92.42ZM117.72800000000001 330.0V272.4H140.48000000000002V280.608H127.052V296.664H139.76V304.872H127.052V321.792H140.48000000000002V330.0ZM159.452 330.648Q152.28799999999998 330.648 149.22799999999998 327.588Q146.16799999999998 324.528 145.844 317.436Q145.808 316.032 145.808 314.52Q145.808 313.008 145.88 311.514Q145.952 310.02 146.096 308.58H154.844Q154.7 311.352 154.682 314.07Q154.664 316.788 154.844 319.128Q155.024 321.072 156.122 322.062Q157.22 323.052 159.452 323.052Q161.648 323.052 162.656 322.062Q163.664 321.072 163.844 319.128Q163.988 317.688 164.042 316.392Q164.096 315.096 164.042 313.764Q163.988 312.432 163.844 310.956Q163.736 309.156 162.962 307.788Q162.188 306.42 160.38799999999998 305.952L155.024 304.584Q151.53199999999998 303.684 149.516 301.97400000000005Q147.5 300.264 146.618 297.672Q145.736 295.08 145.628 291.552Q145.59199999999998 289.788 145.59199999999998 288.15Q145.59199999999998 286.512 145.628 284.892Q145.808 280.176 147.194 277.278Q148.57999999999998 274.38 151.54999999999998 273.06600000000003Q154.51999999999998 271.752 159.452 271.752Q166.39999999999998 271.752 169.51399999999998 274.794Q172.628 277.836 172.916 284.892Q172.988 286.548 172.952 288.96000000000004Q172.916 291.372 172.808 293.604H163.88Q163.988 291.012 164.024 288.40200000000004Q164.06 285.79200000000003 163.952 283.2Q163.88 281.29200000000003 162.70999999999998 280.32000000000005Q161.54 279.348 159.452 279.348Q157.22 279.348 156.176 280.32000000000005Q155.132 281.29200000000003 154.916 283.2Q154.736 285.288 154.736 287.376Q154.736 289.464 154.916 291.552Q155.096 293.424 155.87 294.72Q156.644 296.016 158.588 296.484L163.304 297.6Q167.012 298.5 169.136 300.28200000000004Q171.26 302.064 172.178 304.728Q173.096 307.392 173.20399999999998 310.956Q173.23999999999998 312.144 173.23999999999998 313.206Q173.23999999999998 314.26800000000003 173.22199999999998 315.294Q173.20399999999998 316.32 173.132 317.436Q172.844 324.528 169.766 327.588Q166.688 330.648 159.452 330.648ZM193.292 330.684Q185.948 330.684 182.834 327.624Q179.72 324.564 179.576 317.472Q179.504 313.944 179.468 309.76800000000003Q179.432 305.592 179.432 301.2Q179.432 296.808 179.468 292.61400000000003Q179.504 288.42 179.576 284.856Q179.684 278.736 182.906 275.244Q186.128 271.752 193.292 271.752Q200.348 271.752 203.51600000000002 274.794Q206.684 277.836 206.864 284.892Q206.9 286.152 206.9 287.7Q206.9 289.248 206.864 290.81399999999996Q206.828 292.38 206.792 293.604H197.504Q197.54 292.128 197.576 290.274Q197.612 288.42 197.612 286.548Q197.612 284.676 197.576 283.2Q197.54 281.29200000000003 196.442 280.32000000000005Q195.344 279.348 193.292 279.348Q191.168 279.348 190.05200000000002 280.32000000000005Q188.936 281.29200000000003 188.864 283.2Q188.72 287.376 188.666 291.948Q188.612 296.52 188.612 301.2Q188.612 305.88 188.666 310.43399999999997Q188.72 314.988 188.864 319.164Q188.936 321.108 190.05200000000002 322.098Q191.168 323.088 193.292 323.088Q195.524 323.088 196.676 322.098Q197.828 321.108 197.864 319.164Q197.9 317.688 197.918 315.78Q197.936 313.872 197.918 311.964Q197.9 310.056 197.864 308.616H207.152Q207.224 310.668 207.224 313.026Q207.224 315.384 207.152 317.472Q206.972 324.564 203.75 327.624Q200.528 330.684 193.292 330.684ZM214.028 330.0V272.4H226.664Q233.93599999999998 272.4 237.158 275.388Q240.38 278.376 240.63199999999998 285.252Q240.70399999999998 287.556 240.73999999999998 289.40999999999997Q240.77599999999998 291.264 240.73999999999998 293.082Q240.70399999999998 294.9 240.63199999999998 297.06Q240.488 301.452 239.156 304.206Q237.82399999999998 306.96 234.98 308.364L241.49599999999998 330.0H231.63199999999998L226.232 309.912H223.35199999999998V330.0ZM223.35199999999998 301.704H226.628Q228.968 301.704 230.10199999999998 300.642Q231.236 299.58 231.344 297.528Q231.452 295.512 231.488 293.334Q231.524 291.156 231.488 288.978Q231.452 286.8 231.344 284.784Q231.236 282.732 230.10199999999998 281.67Q228.968 280.608 226.664 280.608H223.35199999999998ZM247.47199999999998 330.0V272.4H256.796V330.0ZM264.428 330.0V272.4H276.56Q283.832 272.4 287.18 275.388Q290.528 278.376 290.56399999999996 285.252Q290.56399999999996 286.908 290.56399999999996 288.294Q290.56399999999996 289.68 290.49199999999996 291.012Q290.276 294.684 288.89 296.862Q287.504 299.04 284.552 300.012V301.668Q287.61199999999997 302.64 289.01599999999996 304.836Q290.42 307.032 290.56399999999996 310.848Q290.63599999999997 312.54 290.63599999999997 313.98Q290.63599999999997 315.42 290.56399999999996 317.148Q290.276 323.988 287.072 326.994Q283.868 330.0 276.596 330.0ZM273.752 321.792H276.596Q278.864 321.792 280.07 320.586Q281.276 319.38 281.276 317.04Q281.312 315.528 281.312 314.142Q281.312 312.756 281.276 311.28Q281.276 307.788 280.142 306.33000000000004Q279.008 304.872 276.524 304.872H273.752ZM273.752 296.664H276.56Q278.864 296.664 280.052 295.152Q281.24 293.64 281.276 290.76Q281.276 289.212 281.276 287.754Q281.276 286.296 281.276 284.784Q281.24 282.732 280.052 281.67Q278.864 280.608 276.56 280.608H273.752ZM297.62 330.0V272.4H320.372V280.608H306.944V296.664H319.652V304.872H306.944V321.792H320.372V330.0ZM343.592 330.0V272.4H352.916V330.0ZM366.632 330.0V280.608H357.884V272.4H384.704V280.608H375.92V330.0ZM389.564 330.0V320.892H400.76000000000005V330.0ZM438.16400000000004 330.648Q431.00000000000006 330.648 427.94000000000005 327.588Q424.88000000000005 324.528 424.55600000000004 317.436Q424.52000000000004 316.032 424.52000000000004 314.52Q424.52000000000004 313.008 424.59200000000004 311.514Q424.66400000000004 310.02 424.80800000000005 308.58H433.55600000000004Q433.4120000000001 311.352 433.3940000000001 314.07Q433.3760000000001 316.788 433.55600000000004 319.128Q433.73600000000005 321.072 434.83400000000006 322.062Q435.9320000000001 323.052 438.16400000000004 323.052Q440.36000000000007 323.052 441.36800000000005 322.062Q442.3760000000001 321.072 442.55600000000004 319.128Q442.70000000000005 317.688 442.754 316.392Q442.80800000000005 315.096 442.754 313.764Q442.70000000000005 312.432 442.55600000000004 310.956Q442.4480000000001 309.156 441.6740000000001 307.788Q440.9000000000001 306.42 439.1000000000001 305.952L433.73600000000005 304.584Q430.2440000000001 303.684 428.22800000000007 301.97400000000005Q426.21200000000005 300.264 425.33000000000004 297.672Q424.4480000000001 295.08 424.3400000000001 291.552Q424.3040000000001 289.788 424.3040000000001 288.15Q424.3040000000001 286.512 424.3400000000001 284.892Q424.52000000000004 280.176 425.90600000000006 277.278Q427.2920000000001 274.38 430.26200000000006 273.06600000000003Q433.2320000000001 271.752 438.16400000000004 271.752Q445.1120000000001 271.752 448.2260000000001 274.794Q451.3400000000001 277.836 451.62800000000004 284.892Q451.70000000000005 286.548 451.66400000000004 288.96000000000004Q451.62800000000004 291.372 451.52000000000004 293.604H442.59200000000004Q442.70000000000005 291.012 442.73600000000005 288.40200000000004Q442.77200000000005 285.79200000000003 442.66400000000004 283.2Q442.59200000000004 281.29200000000003 441.422 280.32000000000005Q440.25200000000007 279.348 438.16400000000004 279.348Q435.9320000000001 279.348 434.88800000000003 280.32000000000005Q433.84400000000005 281.29200000000003 433.62800000000004 283.2Q433.4480000000001 285.288 433.4480000000001 287.376Q433.4480000000001 289.464 433.62800000000004 291.552Q433.80800000000005 293.424 434.58200000000005 294.72Q435.35600000000005 296.016 437.30000000000007 296.484L442.0160000000001 297.6Q445.72400000000005 298.5 447.84800000000007 300.28200000000004Q449.9720000000001 302.064 450.8900000000001 304.728Q451.80800000000005 307.392 451.91600000000005 310.956Q451.95200000000006 312.144 451.95200000000006 313.206Q451.95200000000006 314.26800000000003 451.9340000000001 315.294Q451.91600000000005 316.32 451.84400000000005 317.436Q451.55600000000004 324.528 448.47800000000007 327.588Q445.4000000000001 330.648 438.16400000000004 330.648ZM458.5400000000001 330.0V272.4H467.8640000000001V330.0ZM489.0680000000001 330.648Q484.1720000000001 330.648 481.2020000000001 329.31600000000003Q478.2320000000001 327.984 476.8640000000001 325.068Q475.4960000000001 322.152 475.3160000000001 317.436Q475.2080000000001 313.944 475.1540000000001 309.804Q475.1000000000001 305.664 475.1000000000001 301.36199999999997Q475.1000000000001 297.06 475.1540000000001 292.956Q475.2080000000001 288.852 475.3160000000001 285.432Q475.4960000000001 280.464 476.9180000000001 277.44Q478.3400000000001 274.416 481.2920000000001 273.084Q484.2440000000001 271.752 489.0680000000001 271.752Q495.9080000000001 271.752 499.0580000000001 274.794Q502.2080000000001 277.836 502.6040000000001 284.892Q502.7120000000001 286.836 502.7120000000001 289.23Q502.7120000000001 291.624 502.6040000000001 293.604H493.3160000000001Q493.4240000000001 291.336 493.4240000000001 288.384Q493.4240000000001 285.432 493.3160000000001 283.2Q493.2080000000001 281.29200000000003 492.1280000000001 280.32000000000005Q491.0480000000001 279.348 489.0680000000001 279.348Q486.9080000000001 279.348 485.81000000000006 280.32000000000005Q484.7120000000001 281.29200000000003 484.6040000000001 283.2Q484.4240000000001 287.34000000000003 484.33400000000006 291.91200000000003Q484.2440000000001 296.484 484.2440000000001 301.182Q484.2440000000001 305.88 484.33400000000006 310.43399999999997Q484.4240000000001 314.988 484.6040000000001 319.128Q484.7120000000001 321.072 485.81000000000006 322.062Q486.9080000000001 323.052 489.0680000000001 323.052Q491.22800000000007 323.052 492.4520000000001 322.062Q493.6760000000001 321.072 493.7840000000001 319.128Q493.8560000000001 318.012 493.87400000000014 316.51800000000003Q493.8920000000001 315.024 493.87400000000014 313.512Q493.8560000000001 312.0 493.7840000000001 310.92H489.6440000000001V302.82H502.8560000000001Q503.0000000000001 305.952 502.9640000000001 309.822Q502.9280000000001 313.692 502.7840000000001 317.436Q502.4600000000001 324.528 499.2740000000001 327.588Q496.0880000000001 330.648 489.0680000000001 330.648ZM509.8400000000001 330.0V272.4H523.5920000000001L527.6600000000001 290.724L531.8360000000001 321.792H533.6360000000001L531.9440000000001 296.016L531.1880000000001 272.4H540.1880000000001V330.0H525.7880000000001L521.6480000000001 310.704L518.4080000000001 280.536H516.464L518.0480000000001 308.04L518.84 330.0ZM564.9200000000001 330.0V272.4H574.244V330.0ZM587.9600000000002 330.0V280.608H579.2120000000002V272.4H606.0320000000002V280.608H597.2480000000002V330.0ZM641.6 330.648Q634.4000000000001 330.648 631.1960000000001 327.606Q627.9920000000001 324.564 627.8480000000001 317.472Q627.7760000000001 313.548 627.7220000000001 309.444Q627.6680000000001 305.34000000000003 627.6680000000001 301.182Q627.6680000000001 297.024 627.7220000000001 292.92Q627.7760000000001 288.81600000000003 627.8480000000001 284.856Q627.9920000000001 277.8 631.1960000000001 274.776Q634.4000000000001 271.752 641.6 271.752Q648.8360000000001 271.752 651.9680000000001 274.776Q655.1 277.8 655.316 284.856Q655.4240000000001 288.852 655.4960000000001 292.956Q655.5680000000001 297.06 655.5680000000001 301.21799999999996Q655.5680000000001 305.376 655.4960000000001 309.462Q655.4240000000001 313.548 655.316 317.472Q655.1 324.564 651.9680000000001 327.606Q648.8360000000001 330.648 641.6 330.648ZM641.6 323.052Q643.8320000000001 323.052 644.912 322.08000000000004Q645.9920000000001 321.108 646.028 319.164Q646.172 315.096 646.244 310.506Q646.316 305.916 646.316 301.14599999999996Q646.316 296.376 646.244 291.804Q646.172 287.232 646.028 283.164Q645.9920000000001 281.256 644.8760000000001 280.302Q643.7600000000001 279.348 641.6 279.348Q639.44 279.348 638.3240000000001 280.302Q637.2080000000001 281.256 637.1360000000001 283.164Q636.9920000000001 287.232 636.902 291.804Q636.8120000000001 296.376 636.8120000000001 301.14599999999996Q636.8120000000001 305.916 636.902 310.506Q636.9920000000001 315.096 637.1360000000001 319.164Q637.2080000000001 321.108 638.3240000000001 322.08000000000004Q639.44 323.052 641.6 323.052ZM662.768 330.0V272.4H676.52L680.588 290.724L684.764 321.792H686.5640000000001L684.8720000000001 296.016L684.116 272.4H693.116V330.0H678.716L674.576 310.704L671.336 280.536H669.392L670.976 308.04L671.768 330.0ZM714.2479999999999 330.684Q706.904 330.684 703.79 327.624Q700.676 324.564 700.532 317.472Q700.46 313.944 700.424 309.76800000000003Q700.388 305.592 700.388 301.2Q700.388 296.808 700.424 292.61400000000003Q700.46 288.42 700.532 284.856Q700.64 278.736 703.862 275.244Q707.084 271.752 714.2479999999999 271.752Q721.304 271.752 724.472 274.794Q727.64 277.836 727.8199999999999 284.892Q727.856 286.152 727.856 287.7Q727.856 289.248 727.8199999999999 290.81399999999996Q727.784 292.38 727.7479999999999 293.604H718.46Q718.496 292.128 718.5319999999999 290.274Q718.568 288.42 718.568 286.548Q718.568 284.676 718.532 283.2Q718.496 281.29200000000003 717.3979999999999 280.32000000000005Q716.3 279.348 714.2479999999999 279.348Q712.124 279.348 711.008 280.32000000000005Q709.8919999999999 281.29200000000003 709.8199999999999 283.2Q709.6759999999999 287.376 709.622 291.948Q709.568 296.52 709.568 301.2Q709.568 305.88 709.622 310.43399999999997Q709.6759999999999 314.988 709.8199999999999 319.164Q709.8919999999999 321.108 711.008 322.098Q712.124 323.088 714.2479999999999 323.088Q716.48 323.088 717.6320000000001 322.098Q718.784 321.108 718.8199999999999 319.164Q718.856 317.688 718.874 315.78Q718.8919999999999 313.872 718.874 311.964Q718.856 310.056 718.8199999999999 308.616H728.108Q728.18 310.668 728.18 313.026Q728.18 315.384 728.108 317.472Q727.928 324.564 724.706 327.624Q721.484 330.684 714.2479999999999 330.684ZM734.984 330.0V272.4H757.736V280.608H744.308V296.664H757.0160000000001V304.872H744.308V321.792H757.736V330.0ZM763.7840000000001 330.0V320.892H774.98V330.0Z" fill="#F4F8FC"/><path d="M96.668 410.648Q91.77199999999999 410.648 88.80199999999999 409.31600000000003Q85.832 407.984 84.464 405.068Q83.096 402.152 82.916 397.436Q82.80799999999999 393.944 82.75399999999999 389.804Q82.7 385.664 82.7 381.36199999999997Q82.7 377.06 82.75399999999999 372.956Q82.80799999999999 368.852 82.916 365.432Q83.096 360.464 84.518 357.44Q85.94 354.416 88.892 353.084Q91.844 351.752 96.668 351.752Q103.508 351.752 106.65799999999999 354.794Q109.80799999999999 357.836 110.204 364.892Q110.312 366.836 110.312 369.23Q110.312 371.624 110.204 373.604H100.916Q101.024 371.336 101.024 368.384Q101.024 365.432 100.916 363.2Q100.80799999999999 361.29200000000003 99.728 360.32000000000005Q98.648 359.348 96.668 359.348Q94.508 359.348 93.41 360.32000000000005Q92.312 361.29200000000003 92.204 363.2Q92.024 367.34000000000003 91.934 371.91200000000003Q91.844 376.484 91.844 381.182Q91.844 385.88 91.934 390.43399999999997Q92.024 394.988 92.204 399.128Q92.312 401.072 93.41 402.062Q94.508 403.052 96.668 403.052Q98.828 403.052 100.05199999999999 402.062Q101.276 401.072 101.384 399.128Q101.456 398.012 101.47399999999999 396.51800000000003Q101.49199999999999 395.024 101.47399999999999 393.512Q101.456 392.0 101.384 390.92H97.244V382.82H110.45599999999999Q110.6 385.952 110.564 389.822Q110.52799999999999 393.692 110.384 397.436Q110.06 404.528 106.874 407.588Q103.688 410.648 96.668 410.648ZM117.44 410.0V352.4H140.192V360.608H126.764V376.664H139.47199999999998V384.872H126.764V401.792H140.192V410.0ZM152.43200000000002 410.0V360.608H143.684V352.4H170.50400000000002V360.608H161.72V410.0ZM192.536 410.0V352.4H201.85999999999999V410.0ZM215.57600000000002 410.0V360.608H206.828V352.4H233.64800000000002V360.608H224.864V410.0ZM255.68 410.0V352.4H267.812Q275.084 352.4 278.432 355.388Q281.78 358.376 281.81600000000003 365.252Q281.81600000000003 366.908 281.81600000000003 368.294Q281.81600000000003 369.68 281.744 371.012Q281.528 374.684 280.142 376.862Q278.756 379.04 275.804 380.012V381.668Q278.864 382.64 280.26800000000003 384.836Q281.672 387.032 281.81600000000003 390.848Q281.888 392.54 281.888 393.98Q281.888 395.42 281.81600000000003 397.148Q281.528 403.988 278.324 406.994Q275.12 410.0 267.848 410.0ZM265.004 401.792H267.848Q270.116 401.792 271.322 400.586Q272.528 399.38 272.528 397.04Q272.564 395.528 272.564 394.142Q272.564 392.756 272.528 391.28Q272.528 387.788 271.394 386.33000000000004Q270.26 384.872 267.776 384.872H265.004ZM265.004 376.664H267.812Q270.116 376.664 271.304 375.152Q272.492 373.64 272.528 370.76Q272.528 369.212 272.528 367.754Q272.528 366.296 272.528 364.784Q272.492 362.732 271.304 361.67Q270.116 360.608 267.812 360.608H265.004ZM302.12 410.648Q294.812 410.648 291.644 407.606Q288.476 404.564 288.368 397.472Q288.224 386.276 288.224 374.918Q288.224 363.56 288.368 352.4H297.692Q297.548 359.852 297.53 367.826Q297.512 375.8 297.548 383.756Q297.584 391.712 297.656 399.164Q297.656 401.072 298.808 402.062Q299.96000000000004 403.052 302.12 403.052Q304.31600000000003 403.052 305.414 402.062Q306.512 401.072 306.512 399.164Q306.584 391.712 306.63800000000003 383.756Q306.692 375.8 306.674 367.826Q306.656 359.852 306.512 352.4H315.8Q315.98 363.56 315.98 374.918Q315.98 386.276 315.8 397.472Q315.692 404.564 312.56 407.606Q309.428 410.648 302.12 410.648ZM322.928 410.0V352.4H332.252V410.0ZM339.884 410.0V352.4H349.208V401.792H362.708V410.0ZM374.336 410.0V360.608H365.588V352.4H392.408V360.608H383.624V410.0ZM397.26800000000003 410.0V400.892H408.46400000000006V410.0Z" fill="#FFB000"/><g><rect x="80" y="470" width="1040" height="18" rx="9" fill="#0C2547"/><rect x="80" y="470" width="640" height="18" rx="9" fill="#FFB000"/></g><path d="M85.97 545.0V538.52L80.06 525.2H85.73L88.43 534.44H88.55L91.22 525.2H96.68L90.83 538.49V545.0ZM101.17999999999999 545.39Q100.03999999999999 545.39 99.095 544.94Q98.14999999999999 544.49 97.565 543.575Q96.98 542.66 96.98 541.22Q96.98 539.84 97.505 538.955Q98.03 538.07 98.91499999999999 537.5150000000001Q99.8 536.96 100.85 536.63Q101.89999999999999 536.3 102.98 536.06Q104.12 535.79 104.735 535.5799999999999Q105.35 535.37 105.60499999999999 535.04Q105.86 534.71 105.86 534.2Q105.86 533.39 105.38 532.925Q104.89999999999999 532.46 104.03 532.46Q103.42999999999999 532.46 102.91999999999999 532.76Q102.41 533.06 102.125 533.7049999999999Q101.84 534.35 101.84 535.4L97.49 534.89Q97.52 533.27 98.03 532.0999999999999Q98.53999999999999 530.93 99.455 530.1949999999999Q100.37 529.46 101.58500000000001 529.115Q102.8 528.77 104.21 528.77Q106.39999999999999 528.77 107.79499999999999 529.565Q109.19 530.36 109.85 531.9200000000001Q110.50999999999999 533.48 110.50999999999999 535.82V539.06Q110.50999999999999 540.05 110.52499999999999 541.04Q110.53999999999999 542.03 110.57 543.035Q110.6 544.04 110.66 545.0H106.52Q106.46 544.01 106.42999999999999 542.99Q106.39999999999999 541.97 106.37 540.89H106.03999999999999Q105.86 542.21 105.215 543.23Q104.57 544.25 103.55 544.8199999999999Q102.53 545.39 101.17999999999999 545.39ZM103.22 541.79Q103.67 541.79 104.10499999999999 541.6099999999999Q104.53999999999999 541.43 104.91499999999999 541.0699999999999Q105.28999999999999 540.71 105.54499999999999 540.1400000000001Q105.8 539.57 105.86 538.82L105.83 537.08L106.61 536.96Q106.28 537.32 105.785 537.56Q105.28999999999999 537.8 104.73499999999999 537.9649999999999Q104.17999999999999 538.13 103.625 538.2950000000001Q103.07 538.46 102.62 538.685Q102.17 538.91 101.9 539.27Q101.63 539.63 101.63 540.23Q101.63 541.01 102.095 541.4Q102.56 541.79 103.22 541.79ZM112.30999999999999 545.0V536.54V529.16H116.38999999999999L116.41999999999999 535.19H116.77999999999999Q116.89999999999999 532.76 117.41 531.395Q117.91999999999999 530.03 118.77499999999999 529.46Q119.63 528.89 120.73999999999998 528.89Q121.07 528.89 121.41499999999999 528.95Q121.75999999999999 529.01 122.14999999999999 529.19L121.93999999999998 534.47Q121.48999999999998 534.23 121.03999999999999 534.125Q120.58999999999999 534.02 120.16999999999999 534.02Q119.23999999999998 534.02 118.56499999999998 534.5Q117.88999999999999 534.98 117.51499999999999 535.94Q117.13999999999999 536.9 117.10999999999999 538.37V545.0ZM128.35999999999999 545.39Q126.74 545.39 125.49499999999999 544.4300000000001Q124.24999999999999 543.47 123.54499999999999 541.595Q122.83999999999999 539.72 122.83999999999999 536.99Q122.83999999999999 534.29 123.51499999999999 532.46Q124.19 530.63 125.375 529.7149999999999Q126.55999999999999 528.8 128.12 528.8Q129.35 528.8 130.265 529.37Q131.18 529.94 131.765 531.095Q132.35 532.25 132.62 534.02H133.01Q132.82999999999998 532.94 132.665 531.965Q132.5 530.99 132.41 530.12Q132.32 529.25 132.32 528.53V524.06H137.09V538.25V545.0H133.1L133.07 540.32H132.70999999999998Q132.47 542.03 131.89999999999998 543.17Q131.32999999999998 544.31 130.445 544.8499999999999Q129.56 545.39 128.35999999999999 545.39ZM129.98 541.64Q130.51999999999998 541.64 130.96999999999997 541.31Q131.42 540.98 131.71999999999997 540.395Q132.01999999999998 539.81 132.185 539.06Q132.35 538.31 132.35 537.47V537.05Q132.35 536.33 132.23 535.685Q132.10999999999999 535.04 131.89999999999998 534.5Q131.69 533.96 131.375 533.5699999999999Q131.06 533.18 130.7 532.97Q130.34 532.76 129.92 532.76Q129.23 532.76 128.73499999999999 533.3Q128.23999999999998 533.84 127.98499999999999 534.845Q127.72999999999999 535.85 127.72999999999999 537.23Q127.72999999999999 538.55 127.99999999999999 539.54Q128.26999999999998 540.53 128.765 541.085Q129.26 541.64 129.98 541.64ZM153.17 545.39Q151.96999999999997 545.39 151.07 544.8199999999999Q150.17 544.25 149.59999999999997 543.11Q149.02999999999997 541.97 148.79 540.32H148.42999999999998L148.39999999999998 545.0H144.41V538.22V524.06H149.17999999999998V528.17Q149.17999999999998 529.07 149.08999999999997 530.0150000000001Q148.99999999999997 530.96 148.84999999999997 531.965Q148.7 532.97 148.48999999999998 534.02H148.88Q149.17999999999998 532.22 149.765 531.065Q150.35 529.91 151.265 529.355Q152.17999999999998 528.8 153.38 528.8Q154.96999999999997 528.8 156.15499999999997 529.76Q157.33999999999997 530.72 157.99999999999997 532.55Q158.65999999999997 534.38 158.65999999999997 537.02Q158.65999999999997 539.84 157.93999999999997 541.7Q157.21999999999997 543.56 155.97499999999997 544.4749999999999Q154.73 545.39 153.17 545.39ZM151.54999999999998 541.64Q152.23999999999998 541.64 152.75 541.085Q153.26 540.53 153.515 539.54Q153.76999999999998 538.55 153.76999999999998 537.23Q153.76999999999998 535.85 153.52999999999997 534.845Q153.29 533.84 152.795 533.3Q152.29999999999998 532.76 151.57999999999998 532.76Q151.15999999999997 532.76 150.78499999999997 532.97Q150.40999999999997 533.18 150.10999999999996 533.5699999999999Q149.80999999999997 533.96 149.59999999999997 534.5Q149.39 535.04 149.26999999999998 535.685Q149.14999999999998 536.33 149.14999999999998 537.05V537.47Q149.14999999999998 538.31 149.315 539.06Q149.48 539.81 149.795 540.395Q150.10999999999999 540.98 150.545 541.31Q150.98 541.64 151.54999999999998 541.64ZM164.6 545.39Q162.26 545.39 161.135 543.6800000000001Q160.01 541.97 160.01 538.4V529.16H164.77999999999997V537.83Q164.77999999999997 539.63 165.18499999999997 540.4100000000001Q165.58999999999997 541.19 166.45999999999998 541.19Q167.02999999999997 541.19 167.45 540.86Q167.86999999999998 540.53 168.16999999999996 539.9Q168.46999999999997 539.27 168.61999999999998 538.31Q168.76999999999998 537.35 168.76999999999998 536.06V529.16H173.51V538.01V545.0H169.57999999999998L169.54999999999998 539.33H169.18999999999997Q169.01 541.52 168.44 542.855Q167.86999999999998 544.19 166.90999999999997 544.79Q165.95 545.39 164.6 545.39ZM175.43 545.0V529.16H180.2V545.0ZM177.82999999999998 527.78Q176.45 527.78 175.73 527.225Q175.01 526.6700000000001 175.01 525.59Q175.01 524.51 175.73 523.94Q176.45 523.37 177.82999999999998 523.37Q179.21 523.37 179.93 523.94Q180.65 524.51 180.65 525.59Q180.65 526.64 179.93 527.21Q179.21 527.78 177.82999999999998 527.78ZM182.12 545.0V524.06H186.85999999999999V545.0ZM193.84999999999997 545.39Q192.22999999999996 545.39 190.98499999999996 544.4300000000001Q189.73999999999995 543.47 189.03499999999997 541.595Q188.32999999999996 539.72 188.32999999999996 536.99Q188.32999999999996 534.29 189.00499999999994 532.46Q189.67999999999995 530.63 190.86499999999995 529.7149999999999Q192.04999999999995 528.8 193.60999999999996 528.8Q194.83999999999995 528.8 195.75499999999994 529.37Q196.66999999999996 529.94 197.25499999999994 531.095Q197.83999999999995 532.25 198.10999999999996 534.02H198.49999999999997Q198.31999999999996 532.94 198.15499999999997 531.965Q197.98999999999995 530.99 197.89999999999995 530.12Q197.80999999999995 529.25 197.80999999999995 528.53V524.06H202.57999999999996V538.25V545.0H198.58999999999995L198.55999999999995 540.32H198.19999999999996Q197.95999999999995 542.03 197.38999999999996 543.17Q196.81999999999996 544.31 195.93499999999995 544.8499999999999Q195.04999999999995 545.39 193.84999999999997 545.39ZM195.46999999999997 541.64Q196.00999999999996 541.64 196.45999999999998 541.31Q196.90999999999997 540.98 197.20999999999998 540.395Q197.50999999999996 539.81 197.67499999999995 539.06Q197.83999999999995 538.31 197.83999999999995 537.47V537.05Q197.83999999999995 536.33 197.71999999999997 535.685Q197.59999999999997 535.04 197.38999999999996 534.5Q197.17999999999995 533.96 196.86499999999995 533.5699999999999Q196.54999999999995 533.18 196.18999999999994 532.97Q195.82999999999996 532.76 195.40999999999997 532.76Q194.71999999999997 532.76 194.22499999999997 533.3Q193.72999999999996 533.84 193.47499999999997 534.845Q193.21999999999997 535.85 193.21999999999997 537.23Q193.21999999999997 538.55 193.48999999999995 539.54Q193.75999999999996 540.53 194.25499999999997 541.085Q194.74999999999997 541.64 195.46999999999997 541.64ZM210.67999999999998 545.39Q209.0 545.39 207.725 545.015Q206.45 544.64 205.59499999999997 543.89Q204.73999999999998 543.14 204.36499999999998 542.0899999999999Q203.98999999999998 541.04 204.14 539.69L208.19 539.12Q208.22 539.96 208.49 540.635Q208.76 541.31 209.34499999999997 541.685Q209.92999999999998 542.06 210.82999999999998 542.06Q211.64 542.06 212.14999999999998 541.7449999999999Q212.66 541.43 212.66 540.74Q212.66 540.17 212.32999999999998 539.795Q212.0 539.42 211.33999999999997 539.135Q210.67999999999998 538.85 209.66 538.52Q208.54999999999998 538.19 207.56 537.815Q206.57 537.44 205.79 536.9000000000001Q205.01 536.36 204.56 535.55Q204.10999999999999 534.74 204.10999999999999 533.57Q204.10999999999999 532.07 204.875 531.0050000000001Q205.64 529.94 207.04999999999998 529.355Q208.45999999999998 528.77 210.41 528.77Q212.26999999999998 528.77 213.70999999999998 529.3399999999999Q215.14999999999998 529.91 215.95999999999998 531.095Q216.76999999999998 532.28 216.64999999999998 534.14L212.66 534.77Q212.69 533.99 212.42 533.405Q212.14999999999998 532.82 211.625 532.49Q211.1 532.16 210.32 532.16Q209.48 532.16 209.02999999999997 532.505Q208.57999999999998 532.85 208.57999999999998 533.39Q208.57999999999998 533.87 208.92499999999998 534.2149999999999Q209.26999999999998 534.56 209.92999999999998 534.815Q210.58999999999997 535.07 211.54999999999998 535.34Q212.54 535.64 213.52999999999997 536.03Q214.51999999999998 536.42 215.35999999999999 537.005Q216.2 537.59 216.695 538.4449999999999Q217.19 539.3 217.19 540.59Q217.19 542.0 216.47 543.0799999999999Q215.75 544.16 214.31 544.775Q212.86999999999998 545.39 210.67999999999998 545.39ZM220.57999999999998 545.39Q219.23 545.39 218.53999999999996 544.7149999999999Q217.84999999999997 544.04 217.84999999999997 542.69Q217.84999999999997 541.31 218.53999999999996 540.635Q219.23 539.96 220.57999999999998 539.96Q221.98999999999998 539.96 222.67999999999998 540.635Q223.36999999999998 541.31 223.36999999999998 542.69Q223.36999999999998 545.39 220.57999999999998 545.39ZM237.10999999999999 545.39Q235.16 545.39 233.70499999999998 544.91Q232.25 544.43 231.32 543.53Q230.39 542.63 229.98499999999999 541.37Q229.57999999999998 540.11 229.73 538.55L234.07999999999998 537.65Q234.07999999999998 538.91 234.44 539.825Q234.79999999999998 540.74 235.53499999999997 541.235Q236.26999999999998 541.73 237.29 541.73Q238.04 541.73 238.59499999999997 541.505Q239.14999999999998 541.28 239.47999999999996 540.875Q239.80999999999997 540.47 239.80999999999997 539.9Q239.80999999999997 539.06 239.29999999999998 538.4749999999999Q238.79 537.89 237.90499999999997 537.4549999999999Q237.01999999999998 537.02 235.94 536.63Q234.82999999999998 536.21 233.75 535.73Q232.67 535.25 231.76999999999998 534.56Q230.86999999999998 533.87 230.32999999999998 532.88Q229.79 531.89 229.79 530.48Q229.79 528.74 230.64499999999998 527.465Q231.5 526.19 233.075 525.5Q234.64999999999998 524.81 236.80999999999997 524.81Q239.11999999999998 524.81 240.755 525.605Q242.39 526.4 243.21499999999997 527.87Q244.04 529.34 243.89 531.41L239.57 532.13Q239.63 531.32 239.46499999999997 530.6600000000001Q239.29999999999998 530.0 238.94 529.505Q238.57999999999998 529.01 238.02499999999998 528.74Q237.47 528.47 236.72 528.47Q235.97 528.47 235.45999999999998 528.6949999999999Q234.95 528.92 234.68 529.31Q234.41 529.7 234.41 530.21Q234.41 530.9 234.875 531.38Q235.33999999999997 531.86 236.14999999999998 532.22Q236.95999999999998 532.58 237.98 532.94Q239.11999999999998 533.36 240.26 533.87Q241.39999999999998 534.38 242.35999999999999 535.13Q243.32 535.88 243.89 536.96Q244.45999999999998 538.04 244.45999999999998 539.63Q244.45999999999998 541.4 243.61999999999998 542.7049999999999Q242.77999999999997 544.01 241.14499999999998 544.7Q239.51 545.39 237.10999999999999 545.39ZM251.78 545.33Q249.17 545.33 247.83499999999998 543.905Q246.5 542.48 246.5 539.45V532.85H244.97V529.61H245.48Q246.85999999999999 529.52 247.415 528.86Q247.97 528.2 248.12 526.82L248.29999999999998 525.8H251.14999999999998V529.16H254.20999999999998V532.97H251.14999999999998V538.85Q251.14999999999998 539.96 251.61499999999998 540.485Q252.07999999999998 541.01 252.82999999999998 541.01Q253.22 541.01 253.57999999999998 540.905Q253.94 540.8 254.26999999999998 540.62V544.97Q253.51999999999998 545.18 252.92 545.255Q252.32 545.33 251.78 545.33ZM262.34 545.39Q260.15 545.39 258.55999999999995 544.46Q256.96999999999997 543.53 256.13 541.685Q255.29 539.84 255.29 537.08Q255.29 534.2 256.175 532.355Q257.06 530.51 258.66499999999996 529.64Q260.27 528.77 262.43 528.77Q264.65 528.77 266.24 529.655Q267.83 530.54 268.66999999999996 532.37Q269.51 534.2 269.51 537.02Q269.51 539.93 268.61 541.79Q267.71 543.65 266.105 544.52Q264.5 545.39 262.34 545.39ZM262.46 541.94Q263.21 541.94 263.705 541.445Q264.2 540.95 264.455 539.915Q264.71 538.88 264.71 537.35Q264.71 535.67 264.44 534.575Q264.17 533.48 263.645 532.925Q263.12 532.37 262.31 532.37Q261.59 532.37 261.095 532.88Q260.6 533.39 260.345 534.4549999999999Q260.09 535.52 260.09 537.17Q260.09 539.57 260.69 540.7550000000001Q261.29 541.94 262.46 541.94ZM277.58 545.39Q275.39 545.39 273.79999999999995 544.46Q272.21 543.53 271.37 541.685Q270.53000000000003 539.84 270.53000000000003 537.08Q270.53000000000003 534.2 271.415 532.355Q272.3 530.51 273.905 529.64Q275.51 528.77 277.67 528.77Q279.89 528.77 281.48 529.655Q283.07 530.54 283.90999999999997 532.37Q284.75 534.2 284.75 537.02Q284.75 539.93 283.85 541.79Q282.95 543.65 281.345 544.52Q279.74 545.39 277.58 545.39ZM277.7 541.94Q278.45 541.94 278.945 541.445Q279.44 540.95 279.695 539.915Q279.95 538.88 279.95 537.35Q279.95 535.67 279.68 534.575Q279.41 533.48 278.885 532.925Q278.36 532.37 277.55 532.37Q276.83 532.37 276.33500000000004 532.88Q275.84000000000003 533.39 275.58500000000004 534.4549999999999Q275.33 535.52 275.33 537.17Q275.33 539.57 275.93 540.7550000000001Q276.53000000000003 541.94 277.7 541.94ZM291.29 545.39Q289.67 545.39 288.425 544.4300000000001Q287.18 543.47 286.475 541.595Q285.77000000000004 539.72 285.77000000000004 536.99Q285.77000000000004 534.29 286.44500000000005 532.46Q287.12 530.63 288.305 529.7149999999999Q289.49 528.8 291.05 528.8Q292.28000000000003 528.8 293.19500000000005 529.37Q294.11 529.94 294.69500000000005 531.095Q295.28000000000003 532.25 295.55 534.02H295.94Q295.76 532.94 295.595 531.965Q295.43 530.99 295.34000000000003 530.12Q295.25 529.25 295.25 528.53V524.06H300.02000000000004V538.25V545.0H296.03000000000003L296.0 540.32H295.64Q295.40000000000003 542.03 294.83000000000004 543.17Q294.26 544.31 293.375 544.8499999999999Q292.49 545.39 291.29 545.39ZM292.91 541.64Q293.45 541.64 293.9 541.31Q294.35 540.98 294.65 540.395Q294.95 539.81 295.115 539.06Q295.28000000000003 538.31 295.28000000000003 537.47V537.05Q295.28000000000003 536.33 295.16 535.685Q295.04 535.04 294.83000000000004 534.5Q294.62 533.96 294.305 533.5699999999999Q293.99 533.18 293.63 532.97Q293.27000000000004 532.76 292.85 532.76Q292.16 532.76 291.665 533.3Q291.17 533.84 290.915 534.845Q290.66 535.85 290.66 537.23Q290.66 538.55 290.93 539.54Q291.2 540.53 291.695 541.085Q292.19 541.64 292.91 541.64ZM307.34000000000003 549.41V536.18V529.16H311.39000000000004L311.42 533.96H311.75Q311.99 532.22 312.545 531.05Q313.1 529.88 314.0 529.325Q314.90000000000003 528.77 316.16 528.77Q317.78000000000003 528.77 319.01 529.7Q320.24 530.63 320.915 532.475Q321.59000000000003 534.32 321.59000000000003 537.08Q321.59000000000003 539.87 320.90000000000003 541.7149999999999Q320.21000000000004 543.56 319.02500000000003 544.4749999999999Q317.84000000000003 545.39 316.28000000000003 545.39Q315.08000000000004 545.39 314.19500000000005 544.835Q313.31 544.28 312.725 543.17Q312.14000000000004 542.06 311.81 540.41H311.42Q311.6 541.28 311.75 542.21Q311.90000000000003 543.14 312.005 544.025Q312.11 544.91 312.11 545.66V549.41ZM314.54 541.49Q315.26 541.49 315.74 540.95Q316.22 540.41 316.46000000000004 539.42Q316.70000000000005 538.43 316.70000000000005 537.11Q316.70000000000005 535.67 316.44500000000005 534.6800000000001Q316.19 533.69 315.69500000000005 533.165Q315.20000000000005 532.64 314.51 532.64Q313.97 532.64 313.52 533.0Q313.07 533.36 312.755 533.96Q312.44 534.56 312.26 535.295Q312.08000000000004 536.03 312.08000000000004 536.84V537.29Q312.08000000000004 538.01 312.20000000000005 538.625Q312.32 539.24 312.545 539.765Q312.77000000000004 540.29 313.08500000000004 540.6800000000001Q313.40000000000003 541.07 313.76 541.28Q314.12 541.49 314.54 541.49ZM326.69000000000005 545.39Q325.55000000000007 545.39 324.605 544.94Q323.66 544.49 323.07500000000005 543.575Q322.49000000000007 542.66 322.49000000000007 541.22Q322.49000000000007 539.84 323.01500000000004 538.955Q323.54 538.07 324.42500000000007 537.5150000000001Q325.31000000000006 536.96 326.36 536.63Q327.41 536.3 328.49000000000007 536.06Q329.63000000000005 535.79 330.24500000000006 535.5799999999999Q330.86000000000007 535.37 331.11500000000007 535.04Q331.37000000000006 534.71 331.37000000000006 534.2Q331.37000000000006 533.39 330.89000000000004 532.925Q330.41 532.46 329.54 532.46Q328.94000000000005 532.46 328.43000000000006 532.76Q327.9200000000001 533.06 327.63500000000005 533.7049999999999Q327.35 534.35 327.35 535.4L323.00000000000006 534.89Q323.03000000000003 533.27 323.5400000000001 532.0999999999999Q324.05000000000007 530.93 324.96500000000003 530.1949999999999Q325.88000000000005 529.46 327.095 529.115Q328.31000000000006 528.77 329.72 528.77Q331.91 528.77 333.30500000000006 529.565Q334.70000000000005 530.36 335.36 531.9200000000001Q336.02000000000004 533.48 336.02000000000004 535.82V539.06Q336.02000000000004 540.05 336.0350000000001 541.04Q336.05000000000007 542.03 336.08000000000004 543.035Q336.11000000000007 544.04 336.1700000000001 545.0H332.03000000000003Q331.97 544.01 331.94000000000005 542.99Q331.91 541.97 331.88000000000005 540.89H331.55000000000007Q331.37000000000006 542.21 330.725 543.23Q330.08000000000004 544.25 329.06000000000006 544.8199999999999Q328.04 545.39 326.69000000000005 545.39ZM328.73 541.79Q329.18000000000006 541.79 329.61500000000007 541.6099999999999Q330.05000000000007 541.43 330.42500000000007 541.0699999999999Q330.80000000000007 540.71 331.05500000000006 540.1400000000001Q331.31000000000006 539.57 331.37000000000006 538.82L331.34000000000003 537.08L332.12000000000006 536.96Q331.79 537.32 331.2950000000001 537.56Q330.80000000000007 537.8 330.24500000000006 537.9649999999999Q329.69000000000005 538.13 329.13500000000005 538.2950000000001Q328.58000000000004 538.46 328.13000000000005 538.685Q327.68000000000006 538.91 327.4100000000001 539.27Q327.14000000000004 539.63 327.14000000000004 540.23Q327.14000000000004 541.01 327.605 541.4Q328.07000000000005 541.79 328.73 541.79ZM343.04 549.74Q342.05 549.74 340.985 549.56Q339.92 549.38 338.94500000000005 549.0350000000001Q337.97 548.69 337.19000000000005 548.18L338.42 543.77Q339.35 544.7 340.52000000000004 545.105Q341.69000000000005 545.51 342.77000000000004 545.51Q344.12000000000006 545.51 345.02000000000004 544.94Q345.92 544.37 346.40000000000003 543.2Q346.88000000000005 542.03 346.94000000000005 540.29L347.00000000000006 537.92H346.55Q346.46000000000004 539.96 345.875 541.235Q345.29 542.51 344.33000000000004 543.095Q343.37000000000006 543.68 342.14000000000004 543.68Q340.64000000000004 543.68 339.65000000000003 542.9Q338.66 542.12 338.165 540.515Q337.67 538.91 337.67 536.48V529.16H342.44000000000005V535.25Q342.44000000000005 537.53 342.845 538.535Q343.25000000000006 539.54 344.21000000000004 539.54Q344.72 539.54 345.095 539.24Q345.47 538.94 345.69500000000005 538.34Q345.92 537.74 346.04 536.84Q346.16 535.94 346.16 534.77V529.16H350.90000000000003V540.41Q350.90000000000003 541.82 350.64500000000004 543.185Q350.39000000000004 544.55 349.82000000000005 545.7349999999999Q349.25000000000006 546.92 348.33500000000004 547.8199999999999Q347.42 548.72 346.115 549.23Q344.81000000000006 549.74 343.04 549.74ZM358.94000000000005 545.39Q357.26000000000005 545.39 355.985 545.015Q354.71000000000004 544.64 353.855 543.89Q353.00000000000006 543.14 352.62500000000006 542.0899999999999Q352.25000000000006 541.04 352.40000000000003 539.69L356.45000000000005 539.12Q356.48 539.96 356.75 540.635Q357.02000000000004 541.31 357.605 541.685Q358.19000000000005 542.06 359.09000000000003 542.06Q359.90000000000003 542.06 360.41 541.7449999999999Q360.92 541.43 360.92 540.74Q360.92 540.17 360.59000000000003 539.795Q360.26000000000005 539.42 359.6 539.135Q358.94000000000005 538.85 357.92 538.52Q356.81000000000006 538.19 355.82000000000005 537.815Q354.83000000000004 537.44 354.05000000000007 536.9000000000001Q353.27000000000004 536.36 352.82000000000005 535.55Q352.37000000000006 534.74 352.37000000000006 533.57Q352.37000000000006 532.07 353.13500000000005 531.0050000000001Q353.90000000000003 529.94 355.31000000000006 529.355Q356.72 528.77 358.67 528.77Q360.53000000000003 528.77 361.97 529.3399999999999Q363.41 529.91 364.22 531.095Q365.03000000000003 532.28 364.91 534.14L360.92 534.77Q360.95000000000005 533.99 360.68000000000006 533.405Q360.41 532.82 359.885 532.49Q359.36 532.16 358.58000000000004 532.16Q357.74 532.16 357.29 532.505Q356.84000000000003 532.85 356.84000000000003 533.39Q356.84000000000003 533.87 357.18500000000006 534.2149999999999Q357.53000000000003 534.56 358.19000000000005 534.815Q358.85 535.07 359.81000000000006 535.34Q360.8 535.64 361.79 536.03Q362.78000000000003 536.42 363.62 537.005Q364.46000000000004 537.59 364.95500000000004 538.4449999999999Q365.45000000000005 539.3 365.45000000000005 540.59Q365.45000000000005 542.0 364.73 543.0799999999999Q364.01000000000005 544.16 362.57000000000005 544.775Q361.13000000000005 545.39 358.94000000000005 545.39ZM368.84000000000003 545.39Q367.49000000000007 545.39 366.80000000000007 544.7149999999999Q366.11000000000007 544.04 366.11000000000007 542.69Q366.11000000000007 541.31 366.80000000000007 540.635Q367.49000000000007 539.96 368.84000000000003 539.96Q370.25000000000006 539.96 370.94000000000005 540.635Q371.63000000000005 541.31 371.63000000000005 542.69Q371.63000000000005 545.39 368.84000000000003 545.39Z" fill="#8FA3BF"/></svg>
