<svg xmlns="http://www.w3.org/2000/svg" width="203" height="64" viewBox="0 0 203 64"><rect width="203" height="64" rx="32" fill="#7CF5C4"/><path d="M22 34l7 7 15-17" fill="none" stroke="#071A33" stroke-width="4" stroke-linecap="round" stroke-linejoin="round"/><path d="M61.29 44.0V20.0H65.175V30.11H68.49V20.0H72.36V44.0H68.49V33.53H65.175V44.0ZM75.24 44.0 78.375 20.0H84.615L87.75 44.0H83.77499999999999L83.235 38.495H79.755L79.21499999999999 44.0ZM80.115 35.075H82.875L82.35 29.795L81.91499999999999 23.42H81.07499999999999L80.64 29.795ZM90.63000000000001 44.0V20.0H96.36L98.055 27.635L99.795 40.58H100.545L99.84 29.84L99.525 20.0H103.275V44.0H97.275L95.55 35.96L94.2 23.39H93.39L94.05 34.85L94.38000000000001 44.0ZM107.07000000000001 44.0V20.0H112.605Q115.65 20.0 117.015 21.305Q118.38 22.61 118.425 25.61Q118.47 27.89 118.485 29.9375Q118.5 31.985 118.485 34.0325Q118.47 36.08 118.425 38.36Q118.38 41.375 117.015 42.6875Q115.65 44.0 112.59 44.0ZM110.955 40.58H112.59Q113.565 40.58 114.05250000000001 40.129999999999995Q114.54 39.68 114.555 38.825Q114.6 37.1 114.6225 35.3975Q114.645 33.695 114.645 31.985Q114.645 30.275 114.6225 28.564999999999998Q114.6 26.855 114.555 25.16Q114.54 24.305 114.05250000000001 23.8625Q113.565 23.42 112.605 23.42H110.955ZM127.74000000000001 44.27Q124.74000000000001 44.27 123.405 43.0025Q122.07000000000001 41.735 122.01 38.78Q121.98 37.145 121.95750000000001 35.435Q121.935 33.725 121.935 31.9925Q121.935 30.259999999999998 121.95750000000001 28.549999999999997Q121.98 26.84 122.01 25.19Q122.07000000000001 22.25 123.405 20.990000000000002Q124.74000000000001 19.73 127.74000000000001 19.73Q130.755 19.73 132.06 20.990000000000002Q133.365 22.25 133.455 25.19Q133.5 26.855 133.53 28.564999999999998Q133.56 30.275 133.56 32.0075Q133.56 33.74 133.53 35.4425Q133.5 37.145 133.455 38.78Q133.365 41.735 132.06 43.0025Q130.755 44.27 127.74000000000001 44.27ZM127.74000000000001 41.105Q128.67000000000002 41.105 129.12 40.7Q129.57 40.295 129.585 39.485Q129.645 37.79 129.675 35.8775Q129.705 33.965 129.705 31.977500000000003Q129.705 29.990000000000002 129.675 28.085Q129.645 26.18 129.585 24.485Q129.57 23.69 129.10500000000002 23.2925Q128.64000000000001 22.895 127.74000000000001 22.895Q126.84 22.895 126.375 23.2925Q125.91 23.69 125.88 24.485Q125.82000000000001 26.18 125.7825 28.085Q125.745 29.990000000000002 125.745 31.977500000000003Q125.745 33.965 125.7825 35.8775Q125.82000000000001 37.79 125.88 39.485Q125.91 40.295 126.375 40.7Q126.84 41.105 127.74000000000001 41.105ZM139.53 44.0 136.29 20.0H140.29500000000002L141.945 32.36L142.305 40.58H143.13L143.49 32.36L145.14000000000001 20.0H149.145L145.905 44.0ZM152.05499999999998 44.0V20.0H161.535V23.42H155.94V30.11H161.23499999999999V33.53H155.94V40.58H161.535V44.0ZM164.7 44.0V20.0H169.965Q172.995 20.0 174.3375 21.245Q175.68 22.490000000000002 175.785 25.355Q175.815 26.315 175.82999999999998 27.0875Q175.845 27.86 175.82999999999998 28.6175Q175.815 29.375 175.785 30.275Q175.725 32.105000000000004 175.17000000000002 33.2525Q174.615 34.4 173.43 34.985L176.14499999999998 44.0H172.035L169.785 35.63H168.585V44.0ZM168.585 32.21H169.95Q170.92499999999998 32.21 171.39749999999998 31.767500000000002Q171.87 31.325000000000003 171.915 30.47Q171.96 29.630000000000003 171.97500000000002 28.722500000000004Q171.99 27.815 171.97500000000002 26.9075Q171.96 26.0 171.915 25.16Q171.87 24.305 171.39749999999998 23.8625Q170.92499999999998 23.42 169.965 23.42H168.585Z" fill="#071A33"/></svg>
