<svg xmlns="http://www.w3.org/2000/svg" width="96" height="96" viewBox="0 0 96 96"><rect width="96" height="96" rx="0" fill="#071A33"/><line x1="0" y1="0" x2="0" y2="96" stroke="#16355F" stroke-width="1" opacity="0.9"/><line x1="12" y1="0" x2="12" y2="96" stroke="#16355F" stroke-width="0.5" opacity="0.45"/><line x1="24" y1="0" x2="24" y2="96" stroke="#16355F" stroke-width="0.5" opacity="0.45"/><line x1="36" y1="0" x2="36" y2="96" stroke="#16355F" stroke-width="0.5" opacity="0.45"/><line x1="48" y1="0" x2="48" y2="96" stroke="#16355F" stroke-width="1" opacity="0.9"/><line x1="60" y1="0" x2="60" y2="96" stroke="#16355F" stroke-width="0.5" opacity="0.45"/><line x1="72" y1="0" x2="72" y2="96" stroke="#16355F" stroke-width="0.5" opacity="0.45"/><line x1="84" y1="0" x2="84" y2="96" stroke="#16355F" stroke-width="0.5" opacity="0.45"/><line x1="96" y1="0" x2="96" y2="96" stroke="#16355F" stroke-width="1" opacity="0.9"/><line x1="0" y1="0" x2="96" y2="0" stroke="#16355F" stroke-width="1" opacity="0.9"/><line x1="0" y1="12" x2="96" y2="12" stroke="#16355F" stroke-width="0.5" opacity="0.45"/><line x1="0" y1="24" x2="96" y2="24" stroke="#16355F" stroke-width="0.5" opacity="0.45"/><line x1="0" y1="36" x2="96" y2="36" stroke="#16355F" stroke-width="0.5" opacity="0.45"/><line x1="0" y1="48" x2="96" y2="48" stroke="#16355F" stroke-width="1" opacity="0.9"/><line x1="0" y1="60" x2="96" y2="60" stroke="#16355F" stroke-width="0.5" opacity="0.45"/><line x1="0" y1="72" x2="96" y2="72" stroke="#16355F" stroke-width="0.5" opacity="0.45"/><line x1="0" y1="84" x2="96" y2="84" stroke="#16355F" stroke-width="0.5" opacity="0.45"/><line x1="0" y1="96" x2="96" y2="96" stroke="#16355F" stroke-width="1" opacity="0.9"/></svg>
